# xmcd CD database file
# Copyright 1993-1996 (C) Ti Kan
#
# Track frame offsets:
#    150
#    15940
#    30717
#    51482
#    67570
#    78835
#    91547
#    98487
#    112890
#    125875
#    150760
#    161585
#    176430
#    188925
#    204557
#
# Disc length: 2884 seconds
#
# Revision: 0
# Processed by: cddbd v1.4b41PL1 Copyright (c) Steve Scherf et al.
# Submitted via: MyCDplayer 2.4.0  (wjohn@fix.net)
#
DISCID=a40b420f
DTITLE=Various Artist - 
DTITLE=Country Sacred Music
DYEAR=1900
DGENRE=
TTITLE0=Suddenly There's A Valley
TTITLE1=Precious Memories
TTITLE2=Somebody's Prayin'
TTITLE3=Where Could I Go But To The Lord
TTITLE4=Homecoming In Heaven
TTITLE5=How Great Thou Art
TTITLE6=The Bible Tells Me So
TTITLE7=With God's Hand In Mine
TTITLE8=Let Not Your Heart Be Troubled
TTITLE9=The Old Rugged Cross
TTITLE10=Daddy Sang Bass
TTITLE11=One Day At A Time
TTITLE12=Who Will Pray For Me
TTITLE13=Why Me
TTITLE14=Almost Persuaded
EXTD=Disk 2 of 2
EXTT0=Reba McEntire
EXTT1=Merle Haggard
EXTT2=Ricky Skaggs
EXTT3=Emmylou Harris
EXTT4=George Jones
EXTT5=The Oak Ridge Boys
EXTT6=Roy Rogers and Dale Evans
EXTT7=Slim Whitman
EXTT8=The Forester Sisters
EXTT9=Ricky Van Shelton
EXTT10=Johnny Cash
EXTT11=Christy Lane
EXTT12=Conway Twitty
EXTT13=Kris Kristofferson
EXTT14=Marty Robbins
PLAYORDER=
